<svg xmlns="http://www.w3.org/2000/svg" xmlns:xlink="http://www.w3.org/1999/xlink" version="1.1" x="0px" y="0px" color="#3ca5d6" viewBox="0 0 100 125" style="enable-background:new 0 0 100 100;" xml:space="preserve"><g><path d="M60.96,52.59c-3.37-3.62-7.62-6.41-12.41-8.02C45.71,46.12,42.45,47,39,47c-3.46,0-6.71-0.88-9.55-2.43   C17.57,48.56,9,59.79,9,73v4c0,1.1,0.89,2,2,2h41.51C51.54,76.52,51,73.82,51,71C51,63.31,54.97,56.53,60.96,52.59z"/><circle cx="39" cy="27" r="16"/><path d="M73,53c-9.93,0-18,8.07-18,18c0,9.92,8.07,18,18,18c9.92,0,18-8.08,18-18C91,61.07,82.92,53,73,53z M73,83   c-1.11,0-2-0.9-2-2c0-1.11,0.89-2,2-2c1.1,0,2,0.89,2,2C75,82.1,74.1,83,73,83z M75,73c0,1.1-0.9,2-2,2c-1.11,0-2-0.9-2-2V61   c0-1.11,0.89-2,2-2c1.1,0,2,0.89,2,2V73z"/></g><text x="0" y="115" fill="#000000" font-size="5px" font-weight="bold" font-family="'Helvetica Neue', Helvetica, Arial-Unicode, Arial, Sans-serif">Created by Loritas Medina</text><text x="0" y="120" fill="#000000" font-size="5px" font-weight="bold" font-family="'Helvetica Neue', Helvetica, Arial-Unicode, Arial, Sans-serif">from the Noun Project</text></svg>