<svg id="World_Problems_Title" data-name="World Problems Title" xmlns="http://www.w3.org/2000/svg" width="314.301" height="119.886" viewBox="0 0 314.301 119.886">
  <path id="Path_207" data-name="Path 207" d="M8.454,39.716a2.071,2.071,0,0,1-1.532-.567,2.292,2.292,0,0,1-.68-1.305L.056,1.589A.912.912,0,0,1,0,1.333V1.191A1.141,1.141,0,0,1,.368.368,1.141,1.141,0,0,1,1.191,0H8.227Q9.813,0,9.986,1.247l3.688,22.129,4.084-13.05a4.193,4.193,0,0,1,.569-.992,1.508,1.508,0,0,1,1.3-.54h4.084a1.582,1.582,0,0,1,1.363.54,2.96,2.96,0,0,1,.511.992l4.084,13.05L33.36,1.247Q33.532,0,35.12,0h7.036a1.2,1.2,0,0,1,.879.368,1.142,1.142,0,0,1,.37.823.472.472,0,0,1-.03.142.869.869,0,0,0-.027.255L37.162,37.844a2.3,2.3,0,0,1-.681,1.305,2.074,2.074,0,0,1-1.531.567H29.56a2,2,0,0,1-1.476-.511,2.86,2.86,0,0,1-.68-.965L21.673,22.014,15.942,38.24a3.014,3.014,0,0,1-.652.965,1.9,1.9,0,0,1-1.447.511Z" transform="translate(70.333 12.692) rotate(-11)" fill="#e0d547"/>
  <path id="Path_208" data-name="Path 208" d="M17.532,40.85a22.325,22.325,0,0,1-9.079-1.7,13.2,13.2,0,0,1-6.013-5.134,17.325,17.325,0,0,1-2.384-8.6Q0,22.978,0,20.509T.056,15.6a17.389,17.389,0,0,1,2.411-8.6A13.589,13.589,0,0,1,8.54,1.758,21.616,21.616,0,0,1,17.532,0a21.576,21.576,0,0,1,9.021,1.758,13.794,13.794,0,0,1,6.071,5.248,16.827,16.827,0,0,1,2.383,8.6q.115,2.439.114,4.907t-.114,4.908a16.781,16.781,0,0,1-2.355,8.6,13.38,13.38,0,0,1-6.043,5.134,22.327,22.327,0,0,1-9.077,1.7m0-8.17a6.81,6.81,0,0,0,4.907-1.816q1.9-1.814,2.015-5.787.113-2.5.113-4.709t-.113-4.6a10.3,10.3,0,0,0-.993-4.34,5.635,5.635,0,0,0-2.411-2.468,7.535,7.535,0,0,0-3.517-.794,7.4,7.4,0,0,0-3.461.794,5.79,5.79,0,0,0-2.441,2.468,9.952,9.952,0,0,0-1.02,4.34q-.058,2.385-.058,4.6t.058,4.709q.169,3.971,2.07,5.787a6.736,6.736,0,0,0,4.852,1.816" transform="matrix(0.996, -0.087, 0.087, 0.996, 118.124, 3.061)" fill="#f37735"/>
  <path id="Path_209" data-name="Path 209" d="M1.419,39.716A1.333,1.333,0,0,1,.4,39.29,1.408,1.408,0,0,1,0,38.3V1.418A1.385,1.385,0,0,1,.4.4,1.385,1.385,0,0,1,1.419,0H16.851q7.376,0,11.576,3.375t4.2,9.561a11.657,11.657,0,0,1-1.93,6.809,12.066,12.066,0,0,1-5.107,4.2L33.363,37.9a1.42,1.42,0,0,1,.169.624,1.27,1.27,0,0,1-1.191,1.192H24.8a2.089,2.089,0,0,1-1.589-.539,4.224,4.224,0,0,1-.738-.993L16,25.7H10.213V38.3a1.359,1.359,0,0,1-.425.992,1.429,1.429,0,0,1-1.051.426Zm8.794-22.071h6.525a5.5,5.5,0,0,0,4-1.305,4.7,4.7,0,0,0,1.333-3.517A5.015,5.015,0,0,0,20.8,9.248a5.34,5.34,0,0,0-4.057-1.361H10.213Z" transform="translate(163.981 0.25) rotate(7)" fill="#49b3e4"/>
  <path id="Path_210" data-name="Path 210" d="M1.419,39.716A1.331,1.331,0,0,1,.4,39.291,1.414,1.414,0,0,1,0,38.3V1.418A1.387,1.387,0,0,1,.4.4,1.384,1.384,0,0,1,1.419,0H16.171a22.707,22.707,0,0,1,9.475,1.787,13.333,13.333,0,0,1,6.014,5.22,17.119,17.119,0,0,1,2.269,8.482q.056,2.5.056,4.369t-.056,4.311a18.809,18.809,0,0,1-2.24,8.737,12.222,12.222,0,0,1-5.844,5.134,23.414,23.414,0,0,1-9.39,1.675Zm8.794-8.17h5.958a9.463,9.463,0,0,0,4.056-.766,5.114,5.114,0,0,0,2.441-2.411,10.171,10.171,0,0,0,.879-4.312q.115-1.647.141-2.951t0-2.609q-.028-1.306-.141-2.895-.115-3.857-2.015-5.645A7.959,7.959,0,0,0,15.887,8.17H10.213Z" transform="matrix(0.985, 0.174, -0.174, 0.985, 206.278, 5.536)" fill="#e74194"/>
  <path id="Path_211" data-name="Path 211" d="M1.419,39.716A1.334,1.334,0,0,1,.4,39.291,1.409,1.409,0,0,1,0,38.3V1.419A1.362,1.362,0,0,1,1.419,0H17.305a21.307,21.307,0,0,1,8.2,1.447,11.9,11.9,0,0,1,5.447,4.34,12.8,12.8,0,0,1,1.957,7.319,12.409,12.409,0,0,1-1.957,7.205,11.5,11.5,0,0,1-5.447,4.2,22.486,22.486,0,0,1-8.2,1.363H10.554V38.3a1.361,1.361,0,0,1-.426.993,1.427,1.427,0,0,1-1.05.425Zm8.964-21.673h6.638a5.749,5.749,0,0,0,3.887-1.249,4.746,4.746,0,0,0,1.446-3.8,5.43,5.43,0,0,0-1.247-3.631,5.082,5.082,0,0,0-4.086-1.476H10.384Z" transform="matrix(0.985, -0.174, 0.174, 0.985, 0, 79.429)" fill="#66b750"/>
  <path id="Path_212" data-name="Path 212" d="M29.957,90.8a1.333,1.333,0,0,1-1.021-.426,1.408,1.408,0,0,1-.4-.992V52.5a1.36,1.36,0,0,1,1.419-1.418H45.389q7.376,0,11.576,3.375t4.2,9.561a11.657,11.657,0,0,1-1.93,6.809,12.067,12.067,0,0,1-5.107,4.2L61.9,88.982a1.42,1.42,0,0,1,.169.624A1.27,1.27,0,0,1,60.88,90.8H53.333a2.089,2.089,0,0,1-1.589-.539,4.225,4.225,0,0,1-.738-.993L44.539,76.784H38.751v12.6a1.359,1.359,0,0,1-.425.992,1.429,1.429,0,0,1-1.051.426Zm8.794-22.071h6.525a5.5,5.5,0,0,0,4-1.305A4.7,4.7,0,0,0,50.609,63.9a5.015,5.015,0,0,0-1.275-3.575,5.34,5.34,0,0,0-4.057-1.361H38.751Z" transform="translate(13.015 25.19)" fill="#f37735"/>
  <path id="Path_213" data-name="Path 213" d="M74.27,91.51a22.324,22.324,0,0,1-9.079-1.7,13.2,13.2,0,0,1-6.013-5.134,17.325,17.325,0,0,1-2.384-8.6q-.056-2.439-.056-4.908t.056-4.907a17.389,17.389,0,0,1,2.411-8.6,13.589,13.589,0,0,1,6.072-5.248A21.616,21.616,0,0,1,74.27,50.66a21.576,21.576,0,0,1,9.021,1.758,13.794,13.794,0,0,1,6.071,5.248,16.827,16.827,0,0,1,2.383,8.6q.115,2.439.114,4.907t-.114,4.908a16.781,16.781,0,0,1-2.355,8.6,13.38,13.38,0,0,1-6.043,5.134,22.327,22.327,0,0,1-9.077,1.7m0-8.17a6.81,6.81,0,0,0,4.907-1.816q1.9-1.814,2.015-5.787.113-2.5.113-4.709t-.113-4.6a10.3,10.3,0,0,0-.993-4.34,5.635,5.635,0,0,0-2.411-2.468,7.535,7.535,0,0,0-3.517-.794,7.4,7.4,0,0,0-3.461.794,5.791,5.791,0,0,0-2.441,2.468,9.952,9.952,0,0,0-1.02,4.34q-.058,2.385-.058,4.6t.058,4.709q.169,3.971,2.07,5.787A6.736,6.736,0,0,0,74.27,83.34" transform="translate(22.066 16.816)" fill="#49b3e4"/>
  <path id="Path_214" data-name="Path 214" d="M1.419,39.716A1.332,1.332,0,0,1,.4,39.291,1.414,1.414,0,0,1,0,38.3V1.419A1.388,1.388,0,0,1,.4.4,1.385,1.385,0,0,1,1.419,0H18.724a20.153,20.153,0,0,1,8,1.361,9.691,9.691,0,0,1,4.625,3.887,11.5,11.5,0,0,1,1.5,5.986,8.079,8.079,0,0,1-.767,3.6,8.605,8.605,0,0,1-1.871,2.58,8.519,8.519,0,0,1-2.071,1.476,10.1,10.1,0,0,1,3.829,3.348,9.084,9.084,0,0,1,1.675,5.447,11.962,11.962,0,0,1-1.675,6.439,10.79,10.79,0,0,1-4.879,4.142,19.082,19.082,0,0,1-7.858,1.446Zm8.794-23.943h7.376a4.608,4.608,0,0,0,3.49-1.219,4.232,4.232,0,0,0,1.163-3.036A4.036,4.036,0,0,0,21.079,8.54a4.741,4.741,0,0,0-3.49-1.164H10.213Zm0,16.567H18.1a4.654,4.654,0,0,0,3.688-1.418,4.759,4.759,0,0,0,1.249-3.234,4.706,4.706,0,0,0-1.277-3.348,4.768,4.768,0,0,0-3.66-1.361H10.213Z" transform="matrix(0.995, 0.105, -0.105, 0.995, 123.321, 74.619)" fill="#e74194"/>
  <path id="Path_215" data-name="Path 215" d="M1.419,39.716A1.332,1.332,0,0,1,.4,39.291,1.414,1.414,0,0,1,0,38.3V1.418A1.385,1.385,0,0,1,.4.4,1.385,1.385,0,0,1,1.419,0H8.908A1.387,1.387,0,0,1,9.929.4a1.39,1.39,0,0,1,.4,1.021v29.73H27.518a1.337,1.337,0,0,1,1.021.426,1.482,1.482,0,0,1,.4,1.05V38.3a1.414,1.414,0,0,1-.4.993,1.336,1.336,0,0,1-1.021.425Z" transform="matrix(0.995, -0.105, 0.105, 0.995, 159.101, 77.891)" fill="#e0d547"/>
  <path id="Path_216" data-name="Path 216" d="M144.107,90.8a1.332,1.332,0,0,1-1.021-.425,1.414,1.414,0,0,1-.4-.993V52.5a1.36,1.36,0,0,1,1.419-1.418h26.5a1.36,1.36,0,0,1,1.419,1.418v5.334a1.362,1.362,0,0,1-1.419,1.418H152.5V66.91h16.851a1.335,1.335,0,0,1,1.021.426,1.485,1.485,0,0,1,.4,1.05v4.936a1.413,1.413,0,0,1-.4.992,1.335,1.335,0,0,1-1.021.426H152.5v7.887h18.554a1.358,1.358,0,0,1,1.417,1.418v5.334a1.413,1.413,0,0,1-.4.993,1.335,1.335,0,0,1-1.02.425Z" transform="translate(53.303 22.634)" fill="#66b750"/>
  <path id="Path_217" data-name="Path 217" d="M1.419,39.716a1.36,1.36,0,0,1-.993-.425A1.365,1.365,0,0,1,0,38.3V1.418A1.337,1.337,0,0,1,.426.4,1.414,1.414,0,0,1,1.419,0H7.548A1.864,1.864,0,0,1,8.964.482a2.886,2.886,0,0,1,.569.765l9.986,17.874L29.5,1.247a5.927,5.927,0,0,1,.6-.765A1.77,1.77,0,0,1,31.49,0h6.072A1.483,1.483,0,0,1,38.61.4a1.332,1.332,0,0,1,.426,1.021V38.3a1.36,1.36,0,0,1-.426.993,1.424,1.424,0,0,1-1.048.425H30.808a1.424,1.424,0,0,1-1.048-.425,1.364,1.364,0,0,1-.425-.993V17.022L22.979,28.88a3.4,3.4,0,0,1-.738.907,1.825,1.825,0,0,1-1.249.4h-2.95a1.825,1.825,0,0,1-1.249-.4,3.348,3.348,0,0,1-.737-.907L9.646,17.022V38.3a1.414,1.414,0,0,1-.4.993,1.334,1.334,0,0,1-1.021.425Z" transform="matrix(0.998, 0.07, -0.07, 0.998, 232.657, 74.956)" fill="#f37735"/>
  <path id="Path_218" data-name="Path 218" d="M17.134,40.852a23.859,23.859,0,0,1-9.419-1.617,13.485,13.485,0,0,1-5.673-4.228A9.835,9.835,0,0,1,0,29.447a1.141,1.141,0,0,1,.368-.823,1.205,1.205,0,0,1,.88-.368H8.4a2.189,2.189,0,0,1,1.219.284,3.155,3.155,0,0,1,.767.738,6.639,6.639,0,0,0,1.275,1.645A5.952,5.952,0,0,0,13.844,32.2a9.9,9.9,0,0,0,3.29.482A9.682,9.682,0,0,0,22.1,31.66a3.128,3.128,0,0,0,1.675-2.781,2.656,2.656,0,0,0-.907-2.1,8.538,8.538,0,0,0-2.922-1.446A51.226,51.226,0,0,0,14.582,24a32.81,32.81,0,0,1-7.349-2.355,11.231,11.231,0,0,1-4.625-3.8,10.264,10.264,0,0,1-1.587-5.872A10.333,10.333,0,0,1,2.978,5.787,12.889,12.889,0,0,1,8.454,1.532,20.77,20.77,0,0,1,16.793,0a21.235,21.235,0,0,1,6.895,1.021,15.7,15.7,0,0,1,5.021,2.724,12.863,12.863,0,0,1,3.093,3.6,8.2,8.2,0,0,1,1.106,3.716,1.248,1.248,0,0,1-.312.824,1.09,1.09,0,0,1-.879.368H24.225a2.369,2.369,0,0,1-1.077-.227,2.072,2.072,0,0,1-.794-.738,3.9,3.9,0,0,0-1.787-2.184,6.85,6.85,0,0,0-3.774-.935,7.264,7.264,0,0,0-3.887.879,2.967,2.967,0,0,0-1.39,2.695,2.88,2.88,0,0,0,.767,1.986,6.117,6.117,0,0,0,2.552,1.474,44.15,44.15,0,0,0,4.907,1.305,36.95,36.95,0,0,1,8.341,2.411,10.668,10.668,0,0,1,4.681,3.746,10.3,10.3,0,0,1,1.5,5.758,10.337,10.337,0,0,1-2.212,6.639,14.092,14.092,0,0,1-6.044,4.283,24.208,24.208,0,0,1-8.878,1.5" transform="translate(271.721 80.081) rotate(-13)" fill="#49b3e4"/>
</svg>
